<svg viewBox="0 0 64 64" xml:space="preserve" xmlns="http://www.w3.org/2000/svg" enable-background="new 0 0 64 64"><path d="M61 61h2v2h-2zM1 61h2v2H1zM39 1c-5.571 0-10.377 3.278-12.63 8H19v8h2v4H7c-1.103 0-2 .897-2 2v2c0 1.103.897 2 2 2v34H5v2h54v-2h-2V17h2V9h-7.37C49.377 4.278 44.571 1 39 1zm12 14c0 4.015-1.989 7.567-5.026 9.746A2.993 2.993 0 0 0 43 22c-1.103 0-2-.897-2-2s.897-2 2-2a4.212 4.212 0 0 0 3.789-2.342l.211-.422A2.224 2.224 0 0 1 49 14c.696 0 1.369.195 1.977.55.006.15.023.298.023.45zm-3.104-8.025c-.068.004-.136.025-.204.025a4.954 4.954 0 0 0-4.621 3.129A2.96 2.96 0 0 1 40.308 12h-3.923a1.386 1.386 0 0 1-.515-2.671l.877-.351A5.147 5.147 0 0 0 40 4.174c0-.382.077-.753.218-1.112 3.039.307 5.736 1.762 7.678 3.913zm-9.755-3.931c-.086.372-.141.75-.141 1.13a3.157 3.157 0 0 1-1.995 2.947l-.877.351A3.369 3.369 0 0 0 33 10.615 3.39 3.39 0 0 0 36.385 14h3.923a4.954 4.954 0 0 0 4.621-3.129A2.96 2.96 0 0 1 47.692 9c.519 0 1.031-.089 1.534-.247a11.89 11.89 0 0 1 1.444 3.501A5.871 5.871 0 0 0 49 12a4.212 4.212 0 0 0-3.789 2.342l-.211.422A2.224 2.224 0 0 1 43 16c-2.206 0-4 1.794-4 4s1.794 4 4 4a1 1 0 0 1 1 1c0 .278.027.564.075.858A11.904 11.904 0 0 1 39 27c-1.41 0-2.758-.257-4.016-.706.062-.086.135-.171.193-.257A10.827 10.827 0 0 0 37 20.017v-1.062A2.958 2.958 0 0 0 34.045 16 3.048 3.048 0 0 1 31 12.955c0-.777-.184-1.558-.532-2.257l-.337-.674c-.294-.587-.685-1.136-1.12-1.662a11.994 11.994 0 0 1 9.13-5.318zm-10.178 7.251c.133.206.271.41.379.624l.336.673c.211.422.322.893.322 1.363A5.05 5.05 0 0 0 34.045 18c.526 0 .955.429.955.955v1.062a8.834 8.834 0 0 1-1.488 4.912 5.816 5.816 0 0 1-.392.521C29.472 23.389 27 19.481 27 15c0-1.669.344-3.259.963-4.705zM21 11h4.59c-.38 1.269-.59 2.61-.59 4h-4v-4zm0 24h-8v-4h8v4zm-8 2h8v4h-8v-4zm0 6h8v4h-8v-4zm0 6h8v4h-8v-4zM7 23h14v2H7v-2zm2 4h12v2H11v26h10v6H9V27zm38 34h-7V45h7v16zm-9 0h-7V45h7v16zm17 0h-6V43H29v18h-6V17h2.16c.976 6.773 6.801 12 13.84 12s12.865-5.227 13.84-12H55v44zm2-50v4h-4c0-1.39-.21-2.731-.59-4H57z" fill="#4d568a" class="fill-000000"></path><path d="M26 31v10h26V31H26zm24 4h-4v-2h4v2zm-12 2v2h-4v-2h4zm-4-2v-2h4v2h-4zm6 2h4v2h-4v-2zm0-2v-2h4v2h-4zm-8-2v2h-4v-2h4zm-4 4h4v2h-4v-2zm18 2v-2h4v2h-4zM42 51h2v2h-2zM34 51h2v2h-2z" fill="#4d568a" class="fill-000000"></path></svg>