<svg viewBox="0 0 512 512" xml:space="preserve" xmlns="http://www.w3.org/2000/svg"><path d="M401.8 206.5c-1.4-2-3.7-3.2-6.1-3.2h-46.5v-19.8c0-4.1-3.4-7.5-7.5-7.5H173.2c-4.1 0-7.5 3.4-7.5 7.5v121.2c0 4.1 3.4 7.5 7.5 7.5h21.2c3.9 13.6 16.5 23.7 31.3 23.7s27.4-10 31.3-23.7h83.1c3.9 13.6 16.5 23.7 31.3 23.7s27.4-10 31.3-23.7h15.5c4.1 0 7.5-3.4 7.5-7.5V243c0-1.6-.5-3.1-1.4-4.3l-22.5-32.2zm9 38.7h-33.6v-26.8h14.7l18.9 26.8zm-230.1-54.1h153.5v106.2h-76.5c-2.9-15.1-16.1-26.5-32-26.5s-29.2 11.4-32 26.5h-13V191.1zm45 129.8c-9.7 0-17.6-7.9-17.6-17.6s7.9-17.6 17.6-17.6 17.6 7.9 17.6 17.6-7.9 17.6-17.6 17.6zm145.8 0c-9.7 0-17.6-7.9-17.6-17.6s7.9-17.6 17.6-17.6 17.6 7.9 17.6 17.6-7.9 17.6-17.6 17.6zm32-23.6c-2.9-15.1-16.1-26.5-32-26.5-8.6 0-16.5 3.4-22.3 8.9v-61.3h12.9v34.3c0 4.1 3.4 7.5 7.5 7.5h41.3v37.1h-7.4zM93.6 191.1h53.5c4.1 0 7.5-3.4 7.5-7.5s-3.4-7.5-7.5-7.5H93.6c-4.1 0-7.5 3.4-7.5 7.5s3.4 7.5 7.5 7.5zM147.1 203.4h-41.2c-4.1 0-7.5 3.4-7.5 7.5s3.4 7.5 7.5 7.5h41.2c4.1 0 7.5-3.4 7.5-7.5s-3.3-7.5-7.5-7.5zM147.1 230.7h-26c-4.1 0-7.5 3.4-7.5 7.5s3.4 7.5 7.5 7.5h26c4.1 0 7.5-3.4 7.5-7.5s-3.3-7.5-7.5-7.5zM147.1 258h-9c-4.1 0-7.5 3.4-7.5 7.5s3.4 7.5 7.5 7.5h9c4.1 0 7.5-3.4 7.5-7.5s-3.3-7.5-7.5-7.5z" fill="#4d568a" class="fill-000000"></path></svg>