<svg viewBox="0 0 512 512" xmlns="http://www.w3.org/2000/svg"><path d="M419.88 165.85h-12.07a12.51 12.51 0 0 1-12.45-13.63 29.65 29.65 0 0 0-29.52-32.31h-53.75V93.28a27.71 27.71 0 0 0-27.67-27.68h-50.84a27.71 27.71 0 0 0-27.67 27.68v26.63h-54.26a29.66 29.66 0 0 0-29.57 31.84v.67a12.5 12.5 0 0 1-12.47 13.43H98.12v37.85h22.35l19.29 217.42a23.61 23.61 0 0 0 23.63 21.63h186a23.69 23.69 0 0 0 23.59-21.2l23.29-217.85h23.61Zm-196-72.57a9.69 9.69 0 0 1 9.67-9.68h50.84a9.69 9.69 0 0 1 9.67 9.68v26.63h-70.15ZM355 419.63a5.71 5.71 0 0 1-5.69 5.12h-186a5.7 5.7 0 0 1-5.7-5.22L138.54 203.7h239.63Z" fill="#4d568a" class="fill-000000"></path><path d="M306.36 307.3a47.56 47.56 0 0 1-7 24.81l-8-5.51a7.14 7.14 0 0 0-11.06 7.19l4.65 25a7.14 7.14 0 0 0 8.31 5.71l25-4.6A7.14 7.14 0 0 0 321 347l-7.87-5.41A64.24 64.24 0 0 0 258.81 243v16.71a47.6 47.6 0 0 1 47.55 47.59ZM193 260.41l7.87 5.41a64.23 64.23 0 0 0 54.33 98.55v-16.71a47.53 47.53 0 0 1-40.55-72.36l8 5.51a7.14 7.14 0 0 0 11.06-7.19l-4.65-25a7.14 7.14 0 0 0-8.31-5.71l-25 4.6a7.13 7.13 0 0 0-2.75 12.9Z" fill="#4d568a" class="fill-000000"></path></svg>