<svg data-name="Layer 5" viewBox="0 0 32 32" xmlns="http://www.w3.org/2000/svg"><path d="m4.31 22.19-1.15.07a4.89 4.89 0 0 0-1.54.16c-.28.16-.43.38-.08.61s.88 0 1.2 0 .74-.08 1.12-.1a2.64 2.64 0 0 1 .84 0c.28.09.23.17.39.49a6.06 6.06 0 0 0 1.41 1.72c1.17 1 2.76 1.07 4.13 1.67-.36-2.37-2.18-3.55-4.38-4 .78 0 2.14-.7 2.81-.37 1.19.51 3 1.2 3.37 2.6.19.85.15 2.11 1.23 2.37s1.38-.77 1.12-1.58c.7.36 1.64.07 1.49-.84s-1.22-1-1.91-1.09c-1.77-.28-3.12-1.3-4.79-1.83a20.68 20.68 0 0 1 2-.82 5.47 5.47 0 0 1 2.08.39 12.34 12.34 0 0 1 2.17.47 3.59 3.59 0 0 1 1.28 1.14c.79.93 1.76 2 3.12 1.9 1.72-.16 1.53-2.12.26-2.79.82 0 2-.51 1.92-1.5-.07-1.24-1.57-1.39-2.5-1.14a22 22 0 0 0-2.56 1.17c-1.55.63-3 0-4.61-.16a30.4 30.4 0 0 0 3.72-2.14 1.75 1.75 0 0 1 1.1-.44h1a22.14 22.14 0 0 1 2.7.08c.62 0 1.06.59 1.47 1a4.91 4.91 0 0 0 2 1.37 1.59 1.59 0 0 0 2-.5 1.66 1.66 0 0 0-.89-2.18c.78-.26 1.83-.89 1.14-1.84-.81-1.11-2.3-.52-3.15.12a4.7 4.7 0 0 1-2.35 1.28 30.2 30.2 0 0 1-3.56 0 19 19 0 0 0 1.63-1.61 4.63 4.63 0 0 1 .69-.77 8.12 8.12 0 0 1 2.14-.62 11.62 11.62 0 0 1 2.2-.62 4.49 4.49 0 0 1 2.15.5 5 5 0 0 0 2.51.42 1.56 1.56 0 0 0 1.34-1.65c-.1-.83-.79-1.11-1.5-1.24 1.62-1.51-.62-2.95-2-1.61-.82.81-1.31 2.33-2.33 2.74-1.29.52-2.7.71-4 1.31.75-1 1.48-2 2.18-3a5.5 5.5 0 0 1 2.22-2.38c1.19-.54 2.76-1.19 3-2.68.28-1.83-1.79-1.52-2.76-.76a1.73 1.73 0 0 0-1.12-2c-1-.39-1.61.37-1.74 1.34-.02 1.15.48 2.26.66 3.46.21 1.77-1.72 3.9-2.69 5.28 0-1.48-.56-3.25.21-4.63.5-1.14 2.09-3.06 1-4.34-.8-.91-1.79.1-2.06.92a1.17 1.17 0 0 0-2-.21c-1 1.38.6 2.59 1.33 3.61.88 1.21.72 2.36.83 3.79a5.28 5.28 0 0 1 .13 1.62c-.11.33-.65.71-.89 1a21.55 21.55 0 0 1-2.05 1.89c.08-1.68-.17-3.42.41-5 .34-.92 1.12-2.52.4-3.43s-1.52-.11-1.8.65a1.62 1.62 0 0 0-2-.52 1.56 1.56 0 0 0-.34 2c.68 1.45 2.63 2.21 2.63 3.86.1.76.05 1.59.08 2.36a1.62 1.62 0 0 1 0 .54c-.11.22-.69.49-.89.62a28.3 28.3 0 0 1-4 2.11c.23-1 .25-1.93.41-3A4.27 4.27 0 0 1 13 15.18c.59-.79 1.2-2.12.31-2.95-.7-.66-1.62-.05-1.88.71-.84-1.28-2.93-1.15-3 .59-.07 1.32 1.08 2.18 2 2.9a1.2 1.2 0 0 1 .43.49 2.43 2.43 0 0 1 .15.58 8.15 8.15 0 0 1-.11 2c0 .41 0 1-.33 1.21a4.9 4.9 0 0 1-1.33.48 16.1 16.1 0 0 1-3.35.83 4.86 4.86 0 0 0 1.75-3.36A7.28 7.28 0 0 0 7 15.05c-.66 1-1.61 1.88-2.21 2.94a4.61 4.61 0 0 0-.08 4.2 2.54 2.54 0 0 1-.4 0Z" fill="#4d568a" class="fill-361041"></path><path d="M16.36 12.63s-2.62-2.28-2-2.91 1.69.73 1.69.73.51-1.48 1.17-1-.86 3.18-.86 3.18ZM19.85 8.63s-2.38-2.33-1.57-2.78 1.4 1 1.4 1 .78-2 1.43-1.43-1.26 3.21-1.26 3.21ZM24.27 8.35s-1.57-3.67-.39-3.87S25 6.56 25 6.56 27.33 5 27.49 6c.19 1.22-3.22 2.35-3.22 2.35ZM26.16 13.21s1.44-2.9 2.32-2.56-.34 1.68-.34 1.68 1.67.22 1.57 1.21-3.55-.33-3.55-.33ZM22.67 18.06s2.65-2.33 3.33-1.72S24.35 18 24.35 18s2.48 1.18 1.65 1.76c-1 .71-3.33-1.7-3.33-1.7ZM17.13 21.9s3.71-2.11 4.29-1.27-2.21 1.46-2.21 1.46 2.26 1.55 1.21 2.11-3.29-2.3-3.29-2.3ZM11.32 16s-3-2-1.83-2.81c.89-.61 2 .87 2 .87s.65-1.68 1.37-1.12S11.32 16 11.32 16ZM12.83 24.14s.35 2.28 1 2.52S14 25 14 25s1.62.74 1.54 0-2.71-.86-2.71-.86Z" fill="#ffffff" class="fill-f41870"></path><path d="M5.37 21.56a3.91 3.91 0 0 1-.1-2.68 5.09 5.09 0 0 1 1.51-2.44c.85 3.63-1.41 5.12-1.41 5.12ZM5.8 23.32A8.3 8.3 0 0 0 7.55 25a8.37 8.37 0 0 0 2.26 1 5.37 5.37 0 0 0-1.69-1.71 9.27 9.27 0 0 0-2.32-.97Z" fill="#ffffff" class="fill-ffbbbc"></path></svg>