<svg viewBox="0 0 64 64" xmlns="http://www.w3.org/2000/svg"><g data-name="Layer 32"><path d="M60 18v40M4 58V18M2 58h60v4H2zM41.8 8H62v10H41.8M22.2 18H2V8h20.2" fill="none" stroke="#ffffff" stroke-linejoin="round" stroke-width="2px" class="stroke-000000"></path><circle cx="32" cy="13" r="11" fill="none" stroke="#ffffff" stroke-linejoin="round" stroke-width="2px" class="stroke-000000"></circle><path d="M26 12V8l3 3 3-3 3 3 3-3v4a6 6 0 0 1-6 6 6 6 0 0 1-6-6ZM32 18v6M26 58V48h34M50 36l3 3 3-3v4a3 3 0 0 1-3 3 3 3 0 0 1-3-3ZM53 43v5M40 36l3 3 3-3v4a3 3 0 0 1-3 3 3 3 0 0 1-3-3ZM43 43v5M30 36l3 3 3-3v4a3 3 0 0 1-3 3 3 3 0 0 1-3-3ZM33 43v5" fill="none" stroke="#ffffff" stroke-linejoin="round" stroke-width="2px" class="stroke-000000"></path><path d="M26 48V28h34M26 52h34M8 58V38h14v20M8 30h14v4H8zM18 45v6" fill="none" stroke="#ffffff" stroke-linejoin="round" stroke-width="2px" class="stroke-000000"></path></g></svg>