<svg viewBox="0 0 24 24" xml:space="preserve" xmlns="http://www.w3.org/2000/svg"><g fill="#4d568a" class="fill-303c42"><path d="M16 20h-1v-5.5a.5.5 0 0 0-.5-.5h-5a.5.5 0 0 0-.5.5V20H8c-1.102 0-2 .897-2 2v1.5a.5.5 0 0 0 .5.5h11a.5.5 0 0 0 .5-.5V22c0-1.103-.897-2-2-2zM23.874 7.668l-4-4.5A.5.5 0 0 0 19.5 3H15V2c0-1.103-.897-2-2-2h-2C9.898 0 9 .897 9 2v1H.5a.5.5 0 0 0-.416.777L2.9 8 .084 12.223A.5.5 0 0 0 .5 13h19a.5.5 0 0 0 .374-.168l4-4.5a.5.5 0 0 0 0-.664zM11.423 11C9.929 11 9 10.063 9 8.556 9 6.877 10.036 5 11.423 5s2.423 1.877 2.423 3.556c0 1.507-.929 2.444-2.423 2.444zm5.31-1.65c-.426 1.169-1.192 1.526-1.76 1.62a.501.501 0 0 1-.527-.72 3.71 3.71 0 0 0 .4-1.694 5.63 5.63 0 0 0-.664-2.623.5.5 0 0 1 .261-.704c.446-.17.863-.187 1.236-.05.637.233 1.08.87 1.25 1.795a4.725 4.725 0 0 1-.195 2.377z"></path></g></svg>