<?xml version="1.0" encoding="utf-8"?>
<!-- Generator: Adobe Illustrator 26.1.0, SVG Export Plug-In . SVG Version: 6.00 Build 0)  -->
<svg version="1.1" xmlns="http://www.w3.org/2000/svg" xmlns:xlink="http://www.w3.org/1999/xlink" x="0px" y="0px"
	 viewBox="68.8 246.3 457.6 349.5" style="enable-background:new 68.8 246.3 457.6 349.5;" xml:space="preserve">
<style type="text/css">
	.st0{fill:#63D1BB;stroke:#FFFFFF;stroke-width:25;stroke-miterlimit:10;}
	.st1{fill:#FFFFFF;}
</style>
<g id="Laag_1">
	<g>
		<path class="st0" d="M509.5,328.7c0,0-4.2-31.9-17.2-45.8c-16.5-18.4-34.9-18.5-43.4-19.5c-60.6-4.7-151.4-4.7-151.4-4.7h-0.2
			c0,0-90.8,0-151.4,4.7c-8.5,1-26.9,1.2-43.4,19.5c-12.9,14.1-17.2,45.8-17.2,45.8s-4.1,37.3-4.1,74.6v35c0,37.3,4.3,74.6,4.3,74.6
			s4.2,31.9,17.2,45.8c16.5,18.4,38,17.8,47.7,19.8c34.6,3.5,147.1,4.7,147.1,4.7s90.9-0.1,151.5-4.8c8.5-1,26.9-1.2,43.4-19.5
			c12.9-14,17.2-45.8,17.2-45.8s4.3-37.3,4.3-74.6v-35C513.8,366.1,509.5,328.7,509.5,328.7z"/>
	</g>
</g>
<g id="Layer_2">
	<polygon class="st1" points="243.5,339.8 243.5,502.1 378.7,420.9 	"/>
</g>
</svg>
