<svg viewBox="0 0 200 200" xml:space="preserve" xmlns="http://www.w3.org/2000/svg"><g fill="#4d568a" class="fill-1d1d1b"><path d="M181.22 54.389a75.387 75.387 0 0 0-2.738-4.144l1.951-13.642a3.499 3.499 0 0 0-2.967-3.96 31.175 31.175 0 0 0-2.341-.235l1.309-9.128a3.499 3.499 0 0 0-2.969-3.962c-5.038-.719-10.049.218-14.412 2.645a22.83 22.83 0 0 0-13.049-6.574 3.498 3.498 0 0 0-3.96 2.971l-.128.894c-.651-.598-1.492-.912-2.393-.933-.788.007-1.574.044-2.342.108l-.064-9.198a3.5 3.5 0 0 0-3.5-3.477h-.023a22.811 22.811 0 0 0-13.812 4.741c-3.983-2.994-8.798-4.609-13.923-4.558a3.5 3.5 0 0 0-3.478 3.525l.02 2.937c-.799-.018-1.599-.035-2.397-.035-.544 0-1.099.012-1.65.02l.018-2.929a3.5 3.5 0 0 0-3.478-3.519 22.638 22.638 0 0 0-13.912 4.558 22.808 22.808 0 0 0-13.813-4.741c-1.883-.01-3.509 1.544-3.522 3.477l-.064 9.206a31.83 31.83 0 0 0-2.336-.115 3.437 3.437 0 0 0-2.489 1.005 3.5 3.5 0 0 0-.957 1.733l-.388-2.704a3.503 3.503 0 0 0-3.96-2.966 22.848 22.848 0 0 0-13.048 6.574c-4.362-2.427-9.372-3.363-14.412-2.645a3.499 3.499 0 0 0-2.969 3.962l1.309 9.128c-.787.053-1.569.124-2.34.235a3.5 3.5 0 0 0-2.967 3.959l2.042 14.277a75.09 75.09 0 0 0-2.299 3.535 3.5 3.5 0 0 0-.073 3.517l7.055 12.736v.001l48.796 88.261-16.135 30.166a3.502 3.502 0 0 0 3.086 5.151h64.63a3.5 3.5 0 1 0 0-7H67.343l13.285-24.839h38.743l16.04 29.99a3.5 3.5 0 1 0 6.173-3.301l-14.274-26.688h1.801c.11 0 .219-.007.329-.008.023 0 .045.007.068.007h7.642c11.541 0 20.93 9.389 20.93 20.93a3.5 3.5 0 1 0 7 0c0-12.356-8.069-22.858-19.212-26.529 6.779-5.101 11.172-13.211 11.172-22.329a3.5 3.5 0 1 0-7 0c0 11.541-9.389 20.93-20.93 20.93h-1.713l46.837-84.705.001-.002 7.067-12.783a3.498 3.498 0 0 0-.082-3.53zm-25.568-18.991c.113-.242.24-.48.366-.718.055-.104.103-.21.161-.314a17.537 17.537 0 0 1 1.407-2.135 15.792 15.792 0 0 1 2.948-2.9 15.9 15.9 0 0 1 8.421-3.203l-.945 6.596c-.658.107-1.311.241-1.961.39-.162.037-.322.082-.483.122-.579.143-1.154.303-1.725.479-.199.062-.398.122-.595.188-.709.235-1.413.487-2.106.773-.677.277-1.341.583-1.996.906-.213.105-.42.223-.631.333-.438.229-.873.463-1.3.713-.084.049-.173.091-.257.141-.06-.065-.125-.124-.185-.189-.219-.233-.444-.457-.67-.682-.155-.155-.303-.319-.462-.47.005-.008.008-.019.013-.03zm-7.709-8.815.002-.03.482-3.36a15.84 15.84 0 0 1 5.053 3.087c-.023.024-.042.051-.064.075-.303.323-.584.665-.867 1.004-.149.18-.311.35-.454.534a22.373 22.373 0 0 0-1.174 1.648c-.322.492-.621.995-.902 1.504-.013.024-.03.047-.043.071-.112-.067-.228-.127-.341-.192-.096-.055-.191-.11-.288-.164-.126-.071-.251-.142-.378-.211a30.72 30.72 0 0 0-1.489-.765l.463-3.201zm-9.4 24.34 2.325-16.19c.515.152 1.035.324 1.563.516a23.468 23.468 0 0 1 6.888 3.942c.375.301.739.615 1.094.94.117.107.227.221.342.331.205.196.41.392.608.596-.101.097-.19.207-.289.305-.427.423-.837.861-1.239 1.308-.187.207-.379.409-.561.621a31.035 31.035 0 0 0-1.623 2.059c-.34.472-.661.956-.974 1.446-.092.145-.181.292-.271.438a33.7 33.7 0 0 0-.648 1.1c-.087.155-.174.308-.259.464-.248.46-.487.925-.712 1.396-.025.052-.053.103-.077.155l-.012.024c-.121.033-.24.075-.36.11a22.938 22.938 0 0 0-1.936.659 22.62 22.62 0 0 0-1.247.529 24.971 24.971 0 0 0-1.214.601c-.097.051-.197.097-.293.15-.041-.041-.084-.077-.125-.118a21.775 21.775 0 0 0-.956-.901c-.028-.025-.054-.053-.082-.077l.058-.404zm-1.883 14.061.014-.029a15.555 15.555 0 0 1 .937-1.509c.272-.392.557-.777.867-1.148a16.026 16.026 0 0 1 2.615-2.494 16.17 16.17 0 0 1 6.754-2.981 16.09 16.09 0 0 1 1.675-.218l-.951 6.589a31.584 31.584 0 0 0-4.151.977l-.052.015a31.087 31.087 0 0 0-2.248.802 30.927 30.927 0 0 0-4.596 2.257 31.484 31.484 0 0 0-1.303-1.332c.14-.312.277-.627.439-.929zm2.273 9.735.014-.009a24.65 24.65 0 0 1 4.375-2.625 24.292 24.292 0 0 1 8.572-2.242 21.812 21.812 0 0 1 1.66-.052l-.42 2.92c-.009.042-.011.087-.019.13l-1.196 8.311c-.481.316-.963.63-1.452.937-.48.301-.956.607-1.443.9a85.06 85.06 0 0 1-2.356 1.351c-.45.251-.892.511-1.348.755a90.745 90.745 0 0 1-2.953 1.499c-.294.143-.579.298-.875.439a92.454 92.454 0 0 1-3.955 1.765c-.331.138-.67.261-1.003.395-1.009.409-2.023.81-3.05 1.185-.503.183-1.015.349-1.522.524-.871.301-1.743.599-2.624.875-.05.016-.101.029-.151.045.204-.366.347-.774.409-1.214a23.924 23.924 0 0 1 4.305-10.712 24.422 24.422 0 0 1 5.032-5.177zm-14.509 18.439c-.368.094-.737.186-1.107.276-.467.113-.936.215-1.405.321a16.208 16.208 0 0 1-2.951-7.63 16.59 16.59 0 0 1 .066-4.144l2.408-16.782c.249.073.501.146.726.224.066.022.133.043.2.062l.632.218a24.772 24.772 0 0 1 6.891 3.936 24.604 24.604 0 0 1 2.055 1.9 31.279 31.279 0 0 0-3.723 4.271 31.265 31.265 0 0 0-5.55 13.809 3.495 3.495 0 0 0 1.758 3.539zm3.63-32.903.942-6.603c1.095.413 2.136.953 3.123 1.605.209.138.419.275.623.424.344.252.712.548 1.122.904.061.053.117.119.177.173l-.022.024a23.079 23.079 0 0 0-2.306 2.87c-.145.213-.264.44-.401.658-.266.422-.54.839-.777 1.276-.129-.077-.26-.146-.39-.221l-.263-.149c-.6-.338-1.208-.664-1.828-.961zm6.408-34.351a19.727 19.727 0 0 1 1.551-.285l.066-.011.016 1.933a3.498 3.498 0 0 0-1.621 2.478l-2.481 17.287c-.188-.076-.381-.14-.571-.211-.369-4.154-1.55-8.218-3.488-11.875a30.997 30.997 0 0 0-3.126-4.751 24.016 24.016 0 0 1 9.654-4.565zm-4.318-12.748.043 6.657c-.642.206-1.275.44-1.904.689-.118.047-.236.092-.353.14-.127.052-.256.099-.383.152l-.022-.053c-.083-.218-.175-.432-.265-.646-.066-.158-.127-.317-.196-.474-.101-.228-.212-.451-.32-.676-.068-.141-.132-.284-.203-.424-.122-.24-.254-.475-.385-.711-.067-.121-.129-.245-.198-.365a22.853 22.853 0 0 0-.643-1.049 3.755 3.755 0 0 0-.155-.219 21.164 21.164 0 0 0-.445-.648 15.796 15.796 0 0 1 5.429-2.373zm-12.813 4.453c.78.771 1.484 1.642 2.095 2.589.045.071.094.14.144.207a16.207 16.207 0 0 1 .867 1.577 15.935 15.935 0 0 1 .582 1.342c.121.324.216.658.316.99-.506.368-.999.75-1.478 1.146-.441-.353-.893-.69-1.35-1.017-.143-.102-.288-.199-.432-.299a33.258 33.258 0 0 0-1.483-.966 32.084 32.084 0 0 0-.998-.584c-.159-.089-.317-.181-.477-.267a30.059 30.059 0 0 0-1.315-.669c-.062-.03-.122-.063-.183-.092a31.598 31.598 0 0 0-1.533-.671c-.155-.063-.313-.121-.469-.181a31.18 31.18 0 0 0-1.679-.6c-.16-.052-.318-.11-.478-.159l-.009-1.278-.018-2.666v-.001l-.019-2.717a15.908 15.908 0 0 1 7.917 4.316zm-12.076 8.487.042.008c.311.066.616.151.924.229.261.066.524.123.782.197.306.088.605.195.906.295.249.083.502.156.748.247.299.11.589.238.883.36.242.1.487.191.726.298.291.132.573.281.859.424.232.116.469.223.698.347.283.153.557.325.834.489.222.132.449.254.667.393.273.174.535.366.802.551.212.147.43.285.638.439.295.219.578.456.864.689.168.136.342.263.506.404.445.382.879.781 1.299 1.196l.013.01a24.575 24.575 0 0 1 4.298 5.819 23.93 23.93 0 0 1 2.551 7.833c-.106.063-.216.117-.315.191a3.497 3.497 0 0 0-1.365 2.306l-.094.658c-.04-.022-.086-.03-.127-.05a3.48 3.48 0 0 0-.505-.198c-.078-.024-.153-.054-.233-.072a3.501 3.501 0 0 0-.779-.101h-.179c-.036 0-.073.004-.11.004a26.74 26.74 0 0 0-1.442.04c-.209.011-.417.018-.627.033l.064-9.21a3.5 3.5 0 0 0-3.478-3.525 23.28 23.28 0 0 0-1.594.043 22.468 22.468 0 0 0-9.786 2.869l-.024-3.9-.058-9.594c.531.073 1.068.166 1.612.278zm-2.477 22.922c.113-.137.234-.274.409-.462.101-.113.207-.221.31-.329l.172-.179a16.055 16.055 0 0 1 6.789-4.012 16.3 16.3 0 0 1 1.097-.278l-.046 6.666c-.744.227-1.476.491-2.199.773-.205.08-.406.168-.609.252a30.51 30.51 0 0 0-1.682.756c-.21.102-.42.202-.628.309-.721.371-1.433.76-2.126 1.188a31.38 31.38 0 0 0-3.16 2.225 31.892 31.892 0 0 0-1.48-1.151 15.921 15.921 0 0 1 3.153-5.758zM99.22 68.954a24.401 24.401 0 0 1 4.305-5.815l.021-.017a24.068 24.068 0 0 1 4.392-3.46 23.98 23.98 0 0 1 1.837-1.026l.032-.014a24.058 24.058 0 0 1 7.519-2.33l-.011 1.394c-.075.027-.145.065-.217.097-.059.026-.117.049-.175.078a3.4 3.4 0 0 0-.534.325 3.5 3.5 0 0 0-1.361 2.322l-2.931 20.491a23.9 23.9 0 0 0-.18 1.861c-.011.175-.018.349-.025.523-.02.5-.025.999-.013 1.496.002.096-.006.193-.003.289a16.123 16.123 0 0 1-6.624 3.633c-1.437.396-2.86.597-4.377.574a15.885 15.885 0 0 1-4.375-.632 16.163 16.163 0 0 1-8.76-6.241c-1.957-2.765-2.986-6.044-2.978-9.469l.081-11.952v-.008l.033-5.004c.545.081 1.088.182 1.628.299a24.355 24.355 0 0 1 6.977 2.753c.037.022.075.043.112.063.088.047.168.095.27.157.791.483 1.555 1.02 2.293 1.599a31.244 31.244 0 0 0-3.121 4.739A31.417 31.417 0 0 0 89.409 80.1a3.5 3.5 0 0 0 3.474 3.526h.026a3.501 3.501 0 0 0 3.5-3.474c.029-3.966.975-7.733 2.811-11.198zm15.351 26.185c-3.302.481-6.648.795-10.008.945a23.074 23.074 0 0 0 2.534-.532 23.025 23.025 0 0 0 6.365-2.832c.324.826.694 1.634 1.109 2.419zm-16.639 1.027a100.765 100.765 0 0 1-12.272-.997 22.932 22.932 0 0 0 1.47-3.406 23.07 23.07 0 0 0 7.425 3.701c1.099.322 2.229.551 3.377.702zm-7.149-45.867.04-6.677c.358.082.706.175 1.042.281a8.567 8.567 0 0 0 .268.083c.023.009.047.012.071.021.105.04.211.078.32.107.116.031.219.081.324.123l.087.031.013.007c.144.053.28.104.417.165l.022.007c.074.032.148.065.224.092.06.027.117.057.176.086l.198.096c.061.029.105.047.158.069l.006.003.312.154.06.03c.149.075.301.159.452.242l.185.102.012.006c.215.125.426.251.659.399l.025.019.114.076c.093.06.19.135.284.2a22.823 22.823 0 0 0-2.826 5.274 30.553 30.553 0 0 0-2.643-.996zM79.819 23.133c.022-.057.049-.112.072-.169a15.762 15.762 0 0 1 .746-1.594c.241-.45.497-.893.783-1.322a15.897 15.897 0 0 1 2.027-2.449 15.873 15.873 0 0 1 7.905-4.305l-.042 6.659a31.89 31.89 0 0 0-1.52.511l-.155.058c-.152.056-.302.118-.453.177a30.38 30.38 0 0 0-1.136.465c-.118.051-.237.097-.354.149-.071.032-.139.067-.209.099a30.24 30.24 0 0 0-1.147.554c-.122.062-.246.12-.367.183l-.261.139c-.091.049-.179.101-.27.151-.327.179-.653.36-.973.551-.102.061-.202.127-.303.189-.082.05-.163.102-.245.153-.118.074-.237.146-.354.221a28.66 28.66 0 0 0-.562.371c-.151.102-.3.206-.449.31-.21.147-.42.293-.627.445-.094.069-.186.143-.279.213a9.77 9.77 0 0 1-.106.081c-.137.105-.276.207-.411.314-.073.057-.148.11-.22.168-.078-.065-.161-.122-.239-.186-.232-.188-.468-.366-.703-.547-.178-.136-.352-.282-.533-.414.117-.396.236-.791.385-1.175zm-3.385 23.373a23.803 23.803 0 0 1 .41-2.191c.144-.615.305-1.227.499-1.831.009-.029.021-.057.03-.085.188-.577.404-1.148.637-1.713a24.864 24.864 0 0 1 1.023-2.201 24.286 24.286 0 0 1 4.317-5.837 24.251 24.251 0 0 1 13.295-6.76l.075 12.377a9.253 9.253 0 0 0-.652-.286 12.898 12.898 0 0 0-.77-.303 9.662 9.662 0 0 0-.737-.261 7.613 7.613 0 0 0-.683-.218 21.487 21.487 0 0 0-3.511-.762 14.057 14.057 0 0 0-.756-.094 20.265 20.265 0 0 0-2.262-.126 3.5 3.5 0 0 0-3.5 3.479l-.056 9.204c-.087-.007-.173-.005-.26-.011a31.042 31.042 0 0 0-2.109-.092h-.021c-.225 0-.443.025-.656.066-.07.013-.135.036-.203.053a3.407 3.407 0 0 0-.413.128c-.075.03-.147.065-.219.099a3.41 3.41 0 0 0-.855.574c-.058.053-.116.103-.171.16-.1.104-.19.216-.276.332-.039.052-.082.1-.118.154a3.49 3.49 0 0 0-.302.55c-.011.026-.016.054-.027.08a3.48 3.48 0 0 0-.157.465l-.377-2.633a3.523 3.523 0 0 0-.164-.664c-.025-.071-.062-.134-.091-.203-.058-.137-.116-.274-.19-.4-.042-.072-.094-.136-.141-.205a3.42 3.42 0 0 0-.243-.327c-.055-.063-.117-.119-.177-.178-.069-.069-.132-.144-.206-.207.002-.046.01-.089.017-.133zm1.139 43.104a31.554 31.554 0 0 0-5.553-13.804 31.743 31.743 0 0 0-3.724-4.261 24.363 24.363 0 0 1 2.071-1.906 24.24 24.24 0 0 1 6.88-3.931c.185-.066.376-.13.565-.194l-.048 7.485c-.002.588.021 1.173.062 1.754.013.191.04.379.058.569.037.388.074.775.13 1.159.033.228.079.453.118.68.06.341.12.681.194 1.018.053.241.117.479.178.719.081.316.163.631.257.943.074.246.156.49.238.733.101.298.205.595.318.889a23.254 23.254 0 0 0 1.476 3.118c.129.228.258.455.395.679.053.086.098.175.152.26a16.02 16.02 0 0 1-3.05 8.279c-.467-.105-.934-.206-1.399-.317a92.46 92.46 0 0 1-1.154-.285 3.494 3.494 0 0 0 1.836-3.587zm-6.928 1.005c.069.472.234.904.465 1.289-.074-.023-.149-.042-.222-.065a94.596 94.596 0 0 1-2.637-.873c-.499-.171-1.002-.332-1.496-.511a91.685 91.685 0 0 1-3.111-1.2c-.309-.124-.625-.237-.932-.365a90.592 90.592 0 0 1-3.957-1.753c-.286-.135-.563-.284-.848-.422a89.242 89.242 0 0 1-2.981-1.501c-.443-.235-.873-.486-1.31-.728a88.45 88.45 0 0 1-2.391-1.36c-.481-.287-.951-.586-1.425-.88a83.416 83.416 0 0 1-1.453-.93l-1.175-8.22a1.232 1.232 0 0 0-.008-.06l-.001-.023-.453-3.147-.011-.075c.548.001 1.098.017 1.645.053 2.795.198 5.538.885 8.136 2.037a25.383 25.383 0 0 1 4.767 2.796c.007.005.011.012.018.017a24.783 24.783 0 0 1 5.073 5.2 24.176 24.176 0 0 1 4.307 10.721zM66.47 57.07a3.503 3.503 0 0 0 1.433-1.642c.09-.061.174-.129.265-.188.277-.18.566-.344.855-.508.239-.135.476-.273.722-.396.33-.164.672-.309 1.015-.451.163-.068.325-.138.49-.2l.138.963.802 5.607c-.618.296-1.222.618-1.819.954-.109.062-.219.122-.328.185-.113.065-.229.126-.341.193l-.094-.172-.298-.513a20.727 20.727 0 0 0-1.756-2.568l-.15-.19a12.56 12.56 0 0 0-.934-1.074zm4.154-43.914a15.785 15.785 0 0 1 5.418 2.367 21.646 21.646 0 0 0-1.122 1.721c-.075.127-.142.256-.214.384-.137.243-.275.485-.403.732-.08.155-.153.314-.229.471-.109.224-.22.446-.322.673-.076.169-.145.342-.216.513-.092.219-.185.437-.27.658-.016.04-.034.08-.049.12-.15-.064-.304-.12-.455-.181-.115-.047-.23-.092-.346-.138a30.903 30.903 0 0 0-1.836-.662l.044-6.658zm-5.936 12.457.17.026c.451.071.917.154 1.412.258l.043.008a23.942 23.942 0 0 1 7.331 2.959c.033.02.067.038.101.057.392.239.779.489 1.161.754l.042.031c.338.237.67.488.999.746-.161.204-.313.414-.469.622-.075.1-.152.199-.226.3a31.225 31.225 0 0 0-1.146 1.678c-.073.114-.143.23-.214.345a30.594 30.594 0 0 0-1.048 1.815c-.27.509-.522 1.027-.763 1.55-.077.167-.147.337-.221.505-.159.362-.314.726-.459 1.094-.078.196-.152.393-.225.591-.132.354-.257.711-.375 1.07-.065.195-.13.39-.191.587-.125.404-.239.811-.348 1.22-.039.147-.083.293-.12.441a32.28 32.28 0 0 0-.373 1.68c-.022.115-.038.231-.059.347-.082.451-.155.902-.217 1.356-.026.192-.047.384-.069.577-.027.227-.06.453-.081.681-.036.013-.07.029-.106.042a28.143 28.143 0 0 0-1.943.791 22.67 22.67 0 0 0-1.581.795l-.04.02a16.202 16.202 0 0 1-1.104-5.99l.119-16.956zm-4.407 35.136a.703.703 0 0 1 .074.07l.108.104c.077.071.157.14.228.217.053.058.108.114.166.168.093.088.184.178.257.271.085.107.176.209.272.307.181.181.337.357.491.555l.206.26c.078.098.158.197.25.321.341.455.649.919.903 1.36l.27.463c.177.318.331.627.476.935l.056.124a31.07 31.07 0 0 0-1.32 1.347 33.083 33.083 0 0 0-3.383-1.76 31.748 31.748 0 0 0-2.105-.839 31.962 31.962 0 0 0-1.549-.518l-.159-.051a31.392 31.392 0 0 0-2.165-.555c-.49-.109-.982-.206-1.476-.291-.074-.013-.147-.031-.221-.044l-.951-6.587c.288.022.573.055.857.093.068.013.136.026.205.034a15.922 15.922 0 0 1 8.295 3.836c.057.052.153.131.215.18zm-3.249-25.502c.193-.071.389-.132.584-.198l-.05 7.476a23.159 23.159 0 0 0 1.908 9.329 22.83 22.83 0 0 0-4.813-1.694 31.712 31.712 0 0 0-2.838-4.811 31.57 31.57 0 0 0-1.631-2.07c-.182-.214-.376-.415-.564-.624a30.993 30.993 0 0 0-1.234-1.302c-.098-.096-.185-.204-.284-.299.2-.205.407-.405.615-.604.111-.106.218-.216.331-.321.359-.33.728-.651 1.108-.96a23.762 23.762 0 0 1 6.868-3.922zm-10.959-9.043c.335-.299.68-.586 1.038-.854.05-.038.103-.071.154-.108.313-.229.633-.445.961-.65.119-.075.241-.145.362-.216.28-.165.564-.32.854-.468.121-.062.241-.125.364-.184.404-.193.815-.374 1.235-.533l.944 6.593c-.631.301-1.248.629-1.857.972-.163.092-.321.191-.482.286l-.15.089c-.237-.435-.487-.86-.751-1.274a22.263 22.263 0 0 0-1.243-1.789c-.143-.187-.303-.36-.452-.542-.31-.38-.621-.758-.955-1.117-.037-.04-.069-.084-.106-.124.027-.026.055-.055.084-.081zm-7.14 3.131a15.691 15.691 0 0 1 3.889 4.255c.378.593.716 1.215 1.012 1.86a30.92 30.92 0 0 0-1.319 1.343 30.79 30.79 0 0 0-3.773-1.94 30.69 30.69 0 0 0-7.288-2.121l-.946-6.604a15.915 15.915 0 0 1 8.425 3.207zm.304 37.744.288 2.013c-.104-.037-.209-.071-.312-.11a15.693 15.693 0 0 1-1.153-.492c-.138-.065-.278-.129-.415-.198a16.596 16.596 0 0 1-.776-.425c-.094-.055-.192-.104-.285-.161-.34-.206-.672-.424-.995-.654-.099-.07-.192-.147-.29-.219-.226-.168-.45-.339-.666-.518-.119-.099-.235-.202-.351-.305a16.48 16.48 0 0 1-.896-.845c-.174-.178-.344-.36-.51-.546-.104-.116-.208-.231-.309-.349a16.127 16.127 0 0 1-.516-.649c-.076-.1-.157-.198-.231-.3a16.73 16.73 0 0 1-.669-.993c-.043-.07-.081-.144-.124-.215a16.515 16.515 0 0 1-.474-.842c-.066-.128-.127-.259-.19-.388a15.665 15.665 0 0 1-.51-1.159 16.76 16.76 0 0 1-.267-.731c-.05-.147-.1-.294-.146-.443a15.623 15.623 0 0 1-.222-.811c-.033-.131-.07-.26-.099-.392-.091-.406-.17-.816-.229-1.233l-2.402-16.788a25.283 25.283 0 0 1 1.706.059c2.697.193 5.31.83 7.787 1.902a24.414 24.414 0 0 1 5.097 2.955 23.99 23.99 0 0 1 5.063 5.196c.076.105.141.224.216.332l-.154.021a3.5 3.5 0 0 0-2.978 3.966l1.315 9.11c-.083.006-.164.02-.246.026-.7.054-1.399.123-2.092.223a3.502 3.502 0 0 0-2.965 3.963zm80.162 88.327H80.601L41.932 85.463a94.194 94.194 0 0 0 13.727 7.983c7.27 3.448 15.052 6.016 23.264 7.669a106.999 106.999 0 0 0 21.071 2.085c7.194 0 14.355-.713 21.284-2.121 1.649-.335 3.28-.707 4.893-1.115 11.291-2.858 21.685-7.505 30.953-13.843l.008-.005c.315-.215.63-.431.941-.649l-38.674 69.939zM171.356 50.63l-.005.025-.779 5.462c-.819 5.719-4.628 10.481-9.8 12.659l.244-1.698a3.5 3.5 0 0 0-2.966-3.962 31.97 31.97 0 0 0-2.097-.222c-.087-.007-.174-.022-.261-.028l1.314-9.109a3.496 3.496 0 0 0-2.967-3.964c-.29-.042-.58-.078-.871-.108.058-.083.111-.17.17-.253a24.38 24.38 0 0 1 5.061-5.2 24.005 24.005 0 0 1 5.405-3.08 24.002 24.002 0 0 1 7.037-1.717c.161-.014.321-.042.482-.053a25.385 25.385 0 0 1 1.651-.056l-1.618 11.304z"></path><path d="M65.127 103.097a3.5 3.5 0 1 0-6.123 3.391l20.197 36.465a3.498 3.498 0 0 0 4.757 1.366 3.5 3.5 0 0 0 1.366-4.757l-20.197-36.465z"></path></g></svg>