<svg data-name="Layer 1" viewBox="0 0 128 128" xmlns="http://www.w3.org/2000/svg"><path d="M44.77 90.28A7.38 7.38 0 0 0 50 77.69a7.39 7.39 0 1 0-5.27 12.59ZM41 79.07a5.39 5.39 0 0 1 7.59 7.65 5.32 5.32 0 0 1-3.79 1.56 5.39 5.39 0 0 1-3.8-9.21Z" fill="#3c388c" class="fill-000000"></path><path d="M44.77 107.81c3.4 0 5.24-6 5.24-11.54v-.75l.52.54c4 4 9.46 6.85 11.86 4.45 1.11-1.11 1.17-3 .15-5.4a21.59 21.59 0 0 0-4.6-6.46l-.54-.53c5.81.17 12.29-1.67 12.29-5.23s-6.47-5.38-12.29-5.23l.54-.52a21.59 21.59 0 0 0 4.6-6.46c1-2.38 1-4.29-.15-5.4-2.4-2.41-7.9.5-11.86 4.45l-.52.54v-.75C50 63.92 48.17 58 44.77 58s-5.24 5.94-5.24 11.54v.75l-.53-.56c-3.95-4-9.45-6.86-11.86-4.45s.5 7.9 4.45 11.86l.55.52c-5.83-.15-12.29 1.68-12.29 5.23s6.46 5.4 12.29 5.23c-.19.17-.37.35-.55.53A21.77 21.77 0 0 0 27 95.11c-1 2.37-1 4.29.15 5.4 2.41 2.4 7.91-.5 11.86-4.45l.53-.54v.75c-.01 5.59 1.83 11.54 5.23 11.54ZM37.6 94.64c-4.12 4.12-8.1 5.39-9 4.45-.47-.47-.37-1.69.27-3.2A19.59 19.59 0 0 1 33 90.06a23.61 23.61 0 0 1 2.82-2.42 1 1 0 0 0-.74-1.79 23.64 23.64 0 0 1-3.71.28c-5.82 0-9.53-1.92-9.53-3.24s3.71-3.24 9.53-3.24a23.82 23.82 0 0 1 3.71.29 1 1 0 0 0 .74-1.8A23.52 23.52 0 0 1 33 75.73c-4.12-4.12-5.39-8.1-4.45-9s4.91.34 9 4.45A23.57 23.57 0 0 1 40 74a1 1 0 0 0 1.19.33 1 1 0 0 0 .6-1.08 24.87 24.87 0 0 1-.28-3.7c0-5.82 1.92-9.54 3.24-9.54S48 63.7 48 69.52a23.59 23.59 0 0 1-.29 3.7 1 1 0 0 0 1.8.75 23.57 23.57 0 0 1 2.42-2.83c4.11-4.11 8.1-5.38 9-4.45.47.47.37 1.7-.28 3.2a19.7 19.7 0 0 1-4.17 5.84 25.19 25.19 0 0 1-2.82 2.41 1 1 0 0 0-.34 1.19 1 1 0 0 0 1.08.61 23.72 23.72 0 0 1 3.71-.29c5.82 0 9.53 1.92 9.53 3.24s-3.64 3.24-9.49 3.24a23.64 23.64 0 0 1-3.71-.28 1 1 0 0 0-.74 1.79 25.3 25.3 0 0 1 2.82 2.42 19.54 19.54 0 0 1 4.17 5.83c.65 1.51.75 2.73.28 3.2-.94.94-4.92-.33-9-4.45a22.73 22.73 0 0 1-2.42-2.82 1 1 0 0 0-1.8.74 23.82 23.82 0 0 1 .25 3.71c0 5.82-1.92 9.54-3.24 9.54s-3.24-3.72-3.24-9.54a25.11 25.11 0 0 1 .28-3.71 1 1 0 0 0-1.8-.74 23.48 23.48 0 0 1-2.4 2.82ZM90.25 66.47a7.39 7.39 0 0 0 0 14.77 7.39 7.39 0 0 0 0-14.77ZM94 77.67a5.35 5.35 0 0 1-3.79 1.57 5.39 5.39 0 0 1 0-10.77 5.35 5.35 0 0 1 3.8 1.59 5.38 5.38 0 0 1 0 7.61Z" fill="#3c388c" class="fill-000000"></path><path d="M115.14 73.85c0-3.55-6.48-5.37-12.29-5.23l.54-.52c4-4 6.86-9.46 4.45-11.86-1.11-1.11-3-1.16-5.4-.15a21.59 21.59 0 0 0-6.44 4.6l-.53.54v-.75c0-5.6-1.84-11.54-5.24-11.54S85 54.88 85 60.48v.75l-.53-.54a21.59 21.59 0 0 0-6.47-4.6c-2.37-1-4.29-1-5.4.15s-1.16 3-.15 5.4a21.59 21.59 0 0 0 4.6 6.46l.54.52c-5.8-.16-12.29 1.68-12.29 5.23s6.49 5.4 12.29 5.23l-.54.53c-4 4-6.86 9.45-4.45 11.86S80.52 91 84.47 87l.53-.54v.75c0 5.59 1.83 11.53 5.24 11.53s5.24-5.94 5.24-11.53v-.75L96 87c4 4 9.45 6.85 11.86 4.45s-.5-7.91-4.45-11.86l-.54-.53c5.78.17 12.27-1.65 12.27-5.21Zm-15.24 3a1 1 0 0 0-1.08.6 1 1 0 0 0 .33 1.19A23.57 23.57 0 0 1 102 81c4.11 4.12 5.38 8.1 4.45 9s-4.92-.33-9-4.45A23.52 23.52 0 0 1 95 82.78a1 1 0 0 0-1.2-.34 1 1 0 0 0-.6 1.08 23.72 23.72 0 0 1 .29 3.71c0 5.82-1.92 9.53-3.24 9.53S87 93.05 87 87.23a23.82 23.82 0 0 1 .28-3.71 1 1 0 0 0-.6-1.08 1.06 1.06 0 0 0-.38-.07 1 1 0 0 0-.81.41 23.61 23.61 0 0 1-2.42 2.82C78.94 89.72 75 91 74 90.05s.34-4.91 4.46-9a22.73 22.73 0 0 1 2.84-2.45 1 1 0 0 0 .33-1.19 1 1 0 0 0-1.08-.6 23.6 23.6 0 0 1-3.7.28c-5.82 0-9.54-1.92-9.54-3.24s3.72-3.24 9.54-3.24a23.5 23.5 0 0 1 3.7.29 1 1 0 0 0 1.08-.61 1 1 0 0 0-.33-1.19 22.73 22.73 0 0 1-2.82-2.42 19.59 19.59 0 0 1-4.18-5.83c-.64-1.5-.75-2.73-.27-3.2s1.69-.37 3.2.28a19.54 19.54 0 0 1 5.83 4.17 24.51 24.51 0 0 1 2.42 2.83 1 1 0 0 0 1.19.33 1 1 0 0 0 .6-1.08 23.6 23.6 0 0 1-.28-3.7c0-5.82 1.92-9.54 3.24-9.54s3.24 3.72 3.24 9.54a23.59 23.59 0 0 1-.29 3.7 1 1 0 0 0 1.8.75 24.41 24.41 0 0 1 2.41-2.83 19.79 19.79 0 0 1 5.83-4.17c1.51-.64 2.74-.75 3.21-.28.93.94-.34 4.92-4.45 9a23.57 23.57 0 0 1-2.83 2.42 1 1 0 0 0 .75 1.8 23.59 23.59 0 0 1 3.7-.29c5.82 0 9.54 1.92 9.54 3.24s-3.72 3.24-9.54 3.24a23.6 23.6 0 0 1-3.7-.25ZM64 41.65a7.39 7.39 0 0 0 0-14.77 7.39 7.39 0 1 0 0 14.77Zm-3.8-11.21a5.35 5.35 0 0 1 3.8-1.56 5.32 5.32 0 0 1 3.8 1.59 5.38 5.38 0 0 1-3.8 9.18 5.39 5.39 0 0 1-3.78-9.21Z" fill="#3c388c" class="fill-000000"></path><path d="M39.06 34.27c0 3.55 6.48 5.39 12.29 5.22l-.54.53a21.77 21.77 0 0 0-4.6 6.46c-1 2.37-1 4.29.15 5.4 2.41 2.41 7.91-.5 11.86-4.45l.53-.54v.75c0 5.59 1.83 11.54 5.24 11.54s5.24-6 5.24-11.54v-.75l.52.54c4 4 9.45 6.86 11.86 4.45 1.11-1.11 1.16-3 .15-5.4A21.59 21.59 0 0 0 77.14 40l-.54-.53c5.81.17 12.29-1.67 12.29-5.22S82.42 28.88 76.6 29l.54-.53c4-4 6.86-9.45 4.45-11.86s-7.91.5-11.86 4.45l-.52.54v-.75c0-5.59-1.84-11.54-5.24-11.54s-5.24 6-5.24 11.54v.75l-.53-.54c-3.95-4-9.45-6.86-11.86-4.45-1.11 1.11-1.16 3-.15 5.4a21.77 21.77 0 0 0 4.6 6.46l.54.53c-5.79-.12-12.27 1.71-12.27 5.27Zm15.25-3a1 1 0 0 0 1.08-.6 1 1 0 0 0-.34-1.2 23.52 23.52 0 0 1-2.82-2.41 19.71 19.71 0 0 1-4.18-5.83c-.64-1.51-.75-2.73-.27-3.21.93-.93 4.91.34 9 4.46a22.73 22.73 0 0 1 2.42 2.82 1 1 0 0 0 1.19.33 1 1 0 0 0 .6-1.08 23.6 23.6 0 0 1-.28-3.7c0-5.82 1.92-9.54 3.24-9.54s3.24 3.72 3.24 9.54a23.59 23.59 0 0 1-.29 3.7 1 1 0 0 0 1.8.75 22.73 22.73 0 0 1 2.42-2.82c4.11-4.12 8.1-5.39 9-4.46s-.34 4.92-4.45 9a23.47 23.47 0 0 1-2.83 2.41 1 1 0 0 0-.33 1.2 1 1 0 0 0 1.08.6 23.69 23.69 0 0 1 3.7-.28c5.82 0 9.54 1.91 9.54 3.24s-3.72 3.23-9.54 3.23a23.6 23.6 0 0 1-3.7-.28A1 1 0 0 0 72.9 39a24.41 24.41 0 0 1 2.83 2.41 19.79 19.79 0 0 1 4.17 5.83c.64 1.51.75 2.73.28 3.21-.93.93-4.92-.34-9-4.45a22.69 22.69 0 0 1-2.42-2.83 1 1 0 0 0-1.8.75 23.59 23.59 0 0 1 .29 3.7c0 5.82-1.92 9.54-3.24 9.54s-3.24-3.72-3.24-9.54a23.6 23.6 0 0 1 .28-3.7 1 1 0 0 0-.6-1.08.9.9 0 0 0-.38-.08 1 1 0 0 0-.81.41A23.57 23.57 0 0 1 56.81 46c-4.12 4.11-8.1 5.38-9 4.45-.48-.48-.37-1.7.27-3.21a19.84 19.84 0 0 1 4.18-5.83A23.52 23.52 0 0 1 55.05 39a1 1 0 0 0 .34-1.2 1 1 0 0 0-1.09-.6 23.51 23.51 0 0 1-3.7.28c-5.82 0-9.54-1.91-9.54-3.23S44.78 31 50.6 31a23.82 23.82 0 0 1 3.71.31ZM117 29.53a15.66 15.66 0 0 0 2-11.74 1 1 0 0 0-.45-.63 1 1 0 0 0-.76-.13 15.71 15.71 0 0 0-9.66 7 15.68 15.68 0 0 0-2.08 11.32l-3.81 6.12A15.72 15.72 0 0 0 95.83 23a.93.93 0 0 0-.76-.13 1 1 0 0 0-.63.45 15.76 15.76 0 0 0 5 21.49l.13.06h.1a1 1 0 0 0 .3 0 15.68 15.68 0 0 0-3.68 4 .65.65 0 0 0-.09.23.78.78 0 0 0 0 .14 1.21 1.21 0 0 0 0 .19v.19a1 1 0 0 0 .15.33l.05.06a1.24 1.24 0 0 0 .21.19 15.75 15.75 0 0 0 21.48-5 1 1 0 0 0 .13-.77 1 1 0 0 0-.45-.63 15.71 15.71 0 0 0-11.76-1.89 16.1 16.1 0 0 0-2.29.74l4-6.4a15.7 15.7 0 0 0 9.28-6.72Zm-7.16-4.46a13.69 13.69 0 0 1 7.41-5.8 13.75 13.75 0 0 1-7.78 14.38l2.22-3.57a1 1 0 0 0-1.7-1l-2.22 3.56a13.71 13.71 0 0 1 2.06-7.57ZM94.5 34.61a13.71 13.71 0 0 1 1.13-9.34 13.71 13.71 0 0 1 4.69 15.6l-1.22-5.54a1 1 0 1 0-1.95.43l1.25 5.67a13.62 13.62 0 0 1-3.9-6.82Zm12 9.4a13.71 13.71 0 0 1 9.34 1.13 13.74 13.74 0 0 1-15.77 4.64l6.53-1.67a1 1 0 1 0-.5-1.93l-6.3 1.6a13.75 13.75 0 0 1 6.7-3.78Zm-5.57.26ZM91.52 116.28a1 1 0 0 0 .69-.35 1 1 0 0 0 .22-.75 15.64 15.64 0 0 0-5.6-10.51 15.71 15.71 0 0 0-11.36-3.59h-.07a15.91 15.91 0 0 0-1.48-3.82 1 1 0 0 0-.16-.19.81.81 0 0 0-.09-.1.91.91 0 0 0-.17-.09 1 1 0 0 0-.18-.09.74.74 0 0 0-.21 0 .47.47 0 0 0-.17 0 .89.89 0 0 0-.35.11 15.74 15.74 0 0 0-6 21.23 1 1 0 0 0 .6.48 1.26 1.26 0 0 0 .27 0 1 1 0 0 0 .5-.14 15.67 15.67 0 0 0 7.32-9.4 16.12 16.12 0 0 0 .46-2.36 15.77 15.77 0 0 0 14.49 9.59c.42.04.85.02 1.29-.02Zm-18.17-7.71a13.68 13.68 0 0 1-5.49 7.64 13.71 13.71 0 0 1 3.53-16l-1.69 6.51a1 1 0 0 0 .72 1.22 1.07 1.07 0 0 0 .25 0 1 1 0 0 0 1-.75l1.63-6.29a13.74 13.74 0 0 1 .05 7.67Zm3.78-3.83 4.32 3.67a1 1 0 0 0 1.41-.11 1 1 0 0 0-.12-1.41l-4.4-3.75a13.73 13.73 0 0 1 7.21 3.07 13.63 13.63 0 0 1 4.74 8.12 13.71 13.71 0 0 1-13.16-9.59ZM20.26 51.17A15.66 15.66 0 0 0 9 55a1 1 0 0 0-.09 1.42 15.66 15.66 0 0 0 10.73 5.18h1a15.66 15.66 0 0 0 10.26-3.83 1 1 0 0 0 .22-.28 1.29 1.29 0 0 0 .06-.21A15.93 15.93 0 0 0 34 62a1 1 0 0 0 .19.15.5.5 0 0 0 .12.08.53.53 0 0 0 .18.05.59.59 0 0 0 .19 0h.07a.92.92 0 0 0 .36-.07l.14-.08.16-.1a15.76 15.76 0 0 0 1.34-22 1 1 0 0 0-1.43-.09 15.7 15.7 0 0 0-5.18 10.73 16 16 0 0 0 .05 2.4l-5-5.66a15.71 15.71 0 0 0-14.6-16.1 1 1 0 0 0-.74.24 1 1 0 0 0-.33.7 15.73 15.73 0 0 0 14.22 16.48l4.77 5.4a15.55 15.55 0 0 0-8.25-2.96Zm-.52 8.42a13.7 13.7 0 0 1-8.63-3.76 13.72 13.72 0 0 1 16.3 0l-5.66-.42a1 1 0 1 0-.15 2l5.79.43a13.79 13.79 0 0 1-7.65 1.75Zm12.44-8.8a13.67 13.67 0 0 1 3.76-8.63 13.7 13.7 0 0 1-.08 16.43l.28-6.72a1 1 0 0 0-2-.09l-.27 6.5a13.76 13.76 0 0 1-1.69-7.49Zm-1.34 5.4ZM15 42.17a13.69 13.69 0 0 1-3.44-8.76A13.72 13.72 0 0 1 23.1 45l-2.78-3.15a1 1 0 0 0-1.41-.09 1 1 0 0 0-.09 1.42l2.78 3.12a13.74 13.74 0 0 1-6.6-4.13Z" fill="#3c388c" class="fill-000000"></path></svg>